<svg id="svg" version="1.1" xmlns="http://www.w3.org/2000/svg" xmlns:xlink="http://www.w3.org/1999/xlink" width="50px" height="50px" viewBox="0, 0, 400,485.8837485172005"><g id="svgg"><path id="path0" d="M387.600 111.602 L 387.600 223.203 338.900 223.102 L 290.200 223.000 289.714 217.000 C 286.075 172.124,285.478 176.000,296.038 176.000 L 302.023 176.000 301.912 170.700 L 301.800 165.400 271.400 165.290 C 254.680 165.229,240.621 165.271,240.158 165.383 C 239.522 165.536,238.915 166.594,237.683 169.693 C 236.785 171.952,233.775 179.560,230.993 186.600 C 228.211 193.640,224.614 202.730,222.999 206.800 C 221.385 210.870,218.897 217.170,217.470 220.800 C 216.044 224.430,212.951 232.260,210.598 238.200 C 206.170 249.376,200.720 263.171,196.414 274.100 C 195.049 277.565,193.790 280.400,193.618 280.400 C 193.445 280.400,192.452 278.375,191.412 275.900 C 190.372 273.425,187.899 267.530,185.918 262.800 C 183.937 258.070,181.596 252.490,180.716 250.400 C 179.837 248.310,178.704 245.610,178.200 244.400 C 177.696 243.190,176.526 240.400,175.600 238.200 C 174.674 236.000,173.505 233.210,173.001 232.000 C 172.097 229.831,169.210 222.941,164.117 210.800 C 162.686 207.390,161.103 203.610,160.599 202.400 C 160.095 201.190,158.963 198.490,158.083 196.400 C 155.480 190.219,151.290 180.227,148.605 173.800 C 145.207 165.667,145.177 165.608,144.231 165.380 C 143.774 165.270,129.090 165.229,111.600 165.290 L 79.800 165.400 79.688 170.700 L 79.577 176.000 84.688 176.003 C 98.753 176.011,103.160 178.203,104.685 185.948 C 105.300 189.067,103.887 218.340,102.931 222.298 L 102.714 223.197 51.857 223.298 L 1.000 223.400 1.000 225.400 L 1.000 227.400 51.700 227.502 L 102.400 227.603 102.397 229.302 C 102.394 231.139,101.685 241.053,100.401 257.200 C 99.376 270.095,97.873 289.892,96.589 307.400 C 96.040 314.880,95.425 322.800,95.222 325.000 C 95.019 327.200,94.739 330.620,94.601 332.600 C 94.168 338.794,94.159 338.800,84.801 338.800 L 78.377 338.800 78.488 344.100 L 78.600 349.400 104.492 349.503 L 130.383 349.606 130.608 348.703 C 130.732 348.206,130.780 345.820,130.716 343.400 L 130.600 339.000 123.800 338.768 C 111.835 338.360,111.377 337.719,112.545 323.000 C 113.329 313.117,114.793 295.885,116.180 280.200 C 116.725 274.040,117.724 262.610,118.400 254.800 C 120.665 228.645,121.633 217.803,121.735 217.444 C 121.792 217.248,122.759 219.228,123.885 221.844 C 125.010 224.460,127.765 230.830,130.006 236.000 C 132.247 241.170,135.167 247.920,136.494 251.000 C 141.069 261.616,141.501 262.619,143.910 268.200 C 146.419 274.012,152.565 288.205,157.075 298.600 C 158.507 301.900,161.266 308.290,163.208 312.800 C 165.149 317.310,167.986 323.880,169.512 327.400 C 171.039 330.920,173.414 336.410,174.791 339.600 C 178.571 348.358,178.832 348.761,180.726 348.787 C 182.819 348.816,183.686 347.674,185.968 341.887 C 186.594 340.299,188.860 334.680,191.004 329.400 C 193.148 324.120,195.397 318.540,196.002 317.000 C 196.607 315.460,198.812 309.970,200.902 304.800 C 202.992 299.630,208.220 286.670,212.519 276.000 C 216.818 265.330,222.697 250.750,225.582 243.600 C 228.468 236.450,233.190 224.711,236.075 217.514 C 238.961 210.317,241.447 204.505,241.600 204.600 C 241.753 204.694,241.998 206.803,242.144 209.286 C 242.290 211.769,242.768 218.300,243.205 223.800 C 243.643 229.300,244.454 239.920,245.009 247.400 C 249.141 303.104,250.669 323.577,251.244 330.931 C 251.856 338.741,251.916 338.700,239.688 338.775 L 235.577 338.800 235.688 344.100 L 235.800 349.400 277.200 349.400 L 318.600 349.400 318.712 344.100 L 318.823 338.800 310.671 338.800 C 298.814 338.800,299.048 338.977,298.362 329.480 C 298.137 326.356,297.692 320.920,297.374 317.400 C 297.055 313.880,296.345 305.150,295.795 298.000 C 295.245 290.850,294.526 281.850,294.197 278.000 C 293.868 274.150,293.241 266.230,292.804 260.400 C 292.366 254.570,291.747 246.830,291.429 243.200 C 291.110 239.570,290.723 234.575,290.568 232.100 L 290.286 227.600 338.943 227.600 L 387.600 227.600 387.600 307.800 C 387.600 387.733,387.603 388.000,388.400 388.000 C 389.199 388.000,389.200 387.733,389.200 194.000 C 389.200 0.267,389.199 0.000,388.400 0.000 C 387.602 0.000,387.600 0.267,387.600 111.602 M14.800 410.179 L 14.800 414.758 16.900 414.879 L 19.000 415.000 19.000 428.800 L 19.000 442.600 16.900 442.721 L 14.800 442.842 14.800 447.421 L 14.800 452.000 23.000 452.000 L 31.200 452.000 31.200 447.400 L 31.200 442.800 29.800 442.800 L 28.400 442.800 28.400 429.533 C 28.400 422.237,28.490 416.357,28.600 416.467 C 28.775 416.642,32.045 430.490,35.598 446.106 C 37.061 452.535,36.522 452.000,41.535 452.000 L 45.822 452.000 48.297 441.900 C 49.658 436.345,51.577 428.496,52.562 424.457 C 53.547 420.418,54.453 417.013,54.576 416.890 C 54.699 416.767,54.800 422.536,54.800 429.709 L 54.800 442.752 53.300 442.876 L 51.800 443.000 51.687 447.500 L 51.574 452.000 60.587 452.000 L 69.600 452.000 69.600 447.400 L 69.600 442.800 67.595 442.800 L 65.590 442.800 65.695 428.900 L 65.800 415.000 67.700 414.878 L 69.600 414.756 69.600 410.178 L 69.600 405.600 58.857 405.600 L 48.114 405.600 47.424 408.900 C 46.036 415.541,44.456 423.105,43.578 427.319 C 42.409 432.924,42.439 432.990,39.816 419.200 C 38.582 412.710,37.402 406.995,37.194 406.500 L 36.817 405.600 25.809 405.600 L 14.800 405.600 14.800 410.179 M250.173 406.127 C 250.061 406.417,250.022 408.532,250.085 410.827 L 250.200 415.000 251.505 415.126 L 252.810 415.251 252.705 428.926 L 252.600 442.600 251.300 442.725 L 250.000 442.851 250.000 447.425 L 250.000 452.000 258.800 452.000 L 267.600 452.000 267.600 447.400 L 267.600 442.800 266.200 442.800 L 264.800 442.800 264.800 424.200 L 264.800 405.600 257.587 405.600 C 251.989 405.600,250.330 405.718,250.173 406.127 M270.675 405.858 C 270.524 406.009,270.400 408.064,270.400 410.424 C 270.400 414.957,270.503 415.200,272.433 415.200 C 273.174 415.200,273.200 415.662,273.200 428.975 L 273.200 442.749 271.900 442.875 L 270.600 443.000 270.600 447.400 L 270.600 451.800 279.500 451.908 L 288.400 452.015 288.400 447.408 L 288.400 442.800 287.004 442.800 L 285.608 442.800 285.504 424.300 L 285.400 405.800 278.175 405.691 C 274.202 405.631,270.827 405.706,270.675 405.858 M293.200 410.000 L 293.200 414.400 299.800 414.400 L 306.400 414.400 306.400 410.000 L 306.400 405.600 299.800 405.600 L 293.200 405.600 293.200 410.000 M159.600 408.567 C 157.510 409.050,155.305 409.573,154.700 409.730 L 153.600 410.015 153.600 413.986 L 153.600 417.956 151.700 418.078 L 149.800 418.200 149.800 422.800 L 149.800 427.400 151.300 427.524 L 152.800 427.648 152.800 437.470 C 152.800 451.381,154.409 453.440,164.664 452.652 C 170.109 452.233,170.000 452.336,170.000 447.610 L 170.000 443.600 168.229 443.600 C 165.092 443.600,164.800 442.828,164.800 434.546 L 164.800 427.600 167.100 427.594 C 170.460 427.585,170.446 427.607,170.314 422.568 L 170.200 418.200 167.500 418.082 L 164.800 417.963 164.800 412.782 C 164.800 406.785,165.359 407.238,159.600 408.567 M131.642 417.984 C 130.455 418.423,129.106 419.101,128.645 419.491 C 127.444 420.507,126.001 422.149,126.000 422.500 C 125.998 423.777,125.257 422.346,124.965 420.500 L 124.600 418.200 118.100 418.090 L 111.600 417.980 111.600 422.790 L 111.600 427.600 113.009 427.600 L 114.418 427.600 114.309 435.100 L 114.200 442.600 112.900 442.725 L 111.600 442.851 111.600 447.425 L 111.600 452.000 120.000 452.000 L 128.400 452.000 128.400 447.400 L 128.400 442.800 127.372 442.800 L 126.345 442.800 126.472 436.408 C 126.619 429.072,127.150 427.840,130.169 427.840 C 133.155 427.840,133.175 427.920,133.294 440.556 L 133.400 451.800 140.900 451.909 L 148.400 452.018 148.400 447.409 L 148.400 442.800 147.036 442.800 L 145.673 442.800 145.536 433.068 L 145.400 423.336 144.198 421.368 C 141.942 417.675,136.472 416.200,131.642 417.984 M193.731 417.596 C 191.523 418.061,190.057 418.858,188.611 420.380 C 187.302 421.756,186.888 421.459,186.828 419.100 L 186.800 418.000 179.800 418.000 L 172.800 418.000 172.800 422.800 L 172.800 427.600 174.205 427.600 L 175.610 427.600 175.505 441.900 L 175.400 456.200 174.100 456.325 L 172.800 456.451 172.800 461.025 L 172.800 465.600 181.800 465.600 L 190.800 465.600 190.800 461.024 L 190.800 456.448 189.300 456.324 L 187.800 456.200 187.685 452.500 C 187.554 448.281,187.533 448.307,189.471 450.245 C 194.854 455.627,204.984 452.752,207.949 445.000 C 213.528 430.418,205.580 415.101,193.731 417.596 M227.400 417.470 C 216.333 419.176,210.604 430.231,214.343 442.663 C 218.560 456.683,244.335 455.973,245.686 441.800 L 245.800 440.600 240.307 440.489 L 234.815 440.378 233.990 442.133 C 231.652 447.105,226.312 445.283,225.929 439.381 L 225.800 437.400 236.147 437.293 L 246.495 437.186 246.296 433.493 C 245.706 422.527,237.843 415.859,227.400 417.470 M324.955 417.774 C 314.288 420.187,309.124 433.017,314.236 444.408 C 319.880 456.984,342.927 455.148,344.693 441.982 L 344.908 440.377 339.357 440.488 L 333.805 440.600 333.114 442.069 C 330.660 447.284,324.187 444.535,324.867 438.568 L 325.000 437.400 335.300 437.293 L 345.600 437.186 345.594 434.893 C 345.563 422.715,336.467 415.171,324.955 417.774 M84.400 418.149 C 76.413 420.445,73.400 425.061,73.400 435.000 C 73.400 447.498,78.398 452.791,90.200 452.791 C 100.625 452.791,105.986 448.349,107.286 438.635 C 108.533 429.312,104.856 421.407,98.024 418.729 C 95.277 417.652,87.309 417.313,84.400 418.149 M370.200 417.821 C 369.980 417.883,369.130 418.046,368.312 418.183 C 366.470 418.491,364.477 420.119,363.718 421.934 C 362.974 423.716,362.478 423.170,362.323 420.400 L 362.200 418.200 355.800 418.200 L 349.400 418.200 349.400 422.800 L 349.400 427.400 350.700 427.525 L 352.000 427.651 352.000 435.225 L 352.000 442.800 350.600 442.800 L 349.200 442.800 349.200 447.400 L 349.200 452.000 358.400 452.000 L 367.600 452.000 367.600 447.400 L 367.600 442.800 365.800 442.800 L 364.000 442.800 364.001 438.100 C 364.002 430.825,365.675 428.800,371.685 428.800 L 374.400 428.800 374.400 423.587 C 374.400 419.766,374.267 418.334,373.900 418.222 C 373.060 417.964,370.624 417.700,370.200 417.821 M291.876 418.258 C 291.724 418.409,291.600 420.573,291.600 423.067 L 291.600 427.600 293.009 427.600 L 294.418 427.600 294.309 435.100 L 294.200 442.600 292.900 442.725 L 291.600 442.851 291.600 447.425 L 291.600 452.000 300.400 452.000 L 309.200 452.000 309.200 447.400 L 309.200 442.800 307.806 442.800 L 306.412 442.800 306.306 430.500 L 306.200 418.200 299.176 418.091 C 295.312 418.031,292.027 418.106,291.876 418.258 M233.108 426.927 C 233.678 427.496,234.150 428.551,234.285 429.554 L 234.509 431.229 230.355 431.115 L 226.200 431.000 226.260 429.691 C 226.427 426.036,230.553 424.371,233.108 426.927 M331.843 426.592 C 332.818 427.230,333.802 429.697,333.449 430.616 C 333.273 431.074,332.360 431.200,329.213 431.200 L 325.200 431.200 325.200 430.160 C 325.200 426.489,328.764 424.574,331.843 426.592 M92.679 427.183 C 95.929 429.164,96.113 440.280,92.937 442.778 C 88.989 445.883,85.410 442.188,85.404 435.000 C 85.397 427.724,88.355 424.546,92.679 427.183 M194.055 427.028 C 197.764 428.946,198.048 439.719,194.473 442.858 C 190.706 446.165,187.230 441.422,187.683 433.594 C 188.006 428.011,190.662 425.274,194.055 427.028 " stroke="none" fill="#000000" fill-rule="evenodd"></path><path id="path1" d="M0.000 111.847 L 0.000 223.693 0.900 223.452 C 1.395 223.319,24.505 223.208,52.257 223.205 L 102.713 223.200 102.931 222.300 C 103.887 218.341,105.300 189.068,104.685 185.948 C 103.160 178.203,98.753 176.011,84.688 176.003 L 79.577 176.000 79.688 170.700 L 79.800 165.400 111.600 165.290 C 129.090 165.229,143.774 165.270,144.231 165.380 C 145.180 165.609,145.199 165.645,148.687 174.000 C 151.275 180.197,155.067 189.237,158.083 196.400 C 158.963 198.490,160.095 201.190,160.599 202.400 C 161.103 203.610,162.686 207.390,164.117 210.800 C 169.210 222.941,172.097 229.831,173.001 232.000 C 173.505 233.210,174.674 236.000,175.600 238.200 C 176.526 240.400,177.696 243.190,178.200 244.400 C 178.704 245.610,179.837 248.310,180.716 250.400 C 181.596 252.490,183.937 258.070,185.918 262.800 C 187.899 267.530,190.372 273.425,191.412 275.900 C 192.452 278.375,193.445 280.400,193.618 280.400 C 193.790 280.400,195.049 277.565,196.414 274.100 C 200.720 263.171,206.170 249.376,210.598 238.200 C 212.951 232.260,216.044 224.430,217.470 220.800 C 218.897 217.170,221.385 210.870,222.999 206.800 C 224.614 202.730,228.211 193.640,230.993 186.600 C 233.775 179.560,236.785 171.952,237.683 169.693 C 238.915 166.594,239.522 165.536,240.158 165.383 C 240.621 165.271,254.680 165.229,271.400 165.290 L 301.800 165.400 301.912 170.700 L 302.023 176.000 296.038 176.000 C 285.478 176.000,286.075 172.124,289.714 217.000 L 290.200 223.000 338.900 223.102 L 387.600 223.203 387.600 111.602 L 387.600 0.000 193.800 0.000 L 0.000 0.000 0.000 111.847 M236.075 217.514 C 233.190 224.711,228.468 236.450,225.582 243.600 C 222.697 250.750,216.818 265.330,212.519 276.000 C 208.220 286.670,202.992 299.630,200.902 304.800 C 198.812 309.970,196.607 315.460,196.002 317.000 C 195.397 318.540,193.148 324.120,191.004 329.400 C 188.860 334.680,186.594 340.299,185.968 341.887 C 183.686 347.674,182.819 348.816,180.726 348.787 C 178.832 348.761,178.571 348.358,174.791 339.600 C 173.414 336.410,171.039 330.920,169.512 327.400 C 167.986 323.880,165.149 317.310,163.208 312.800 C 161.266 308.290,158.507 301.900,157.075 298.600 C 152.565 288.205,146.419 274.012,143.910 268.200 C 141.501 262.619,141.069 261.616,136.494 251.000 C 135.167 247.920,132.247 241.170,130.006 236.000 C 127.765 230.830,125.010 224.460,123.885 221.844 C 122.759 219.228,121.792 217.248,121.735 217.444 C 121.633 217.803,120.665 228.645,118.400 254.800 C 117.724 262.610,116.725 274.040,116.180 280.200 C 114.793 295.885,113.329 313.117,112.545 323.000 C 111.377 337.719,111.835 338.360,123.800 338.768 L 130.600 339.000 130.716 343.400 C 130.780 345.820,130.732 348.206,130.608 348.703 L 130.383 349.606 104.492 349.503 L 78.600 349.400 78.488 344.100 L 78.377 338.800 84.801 338.800 C 94.159 338.800,94.168 338.794,94.601 332.600 C 94.739 330.620,95.019 327.200,95.222 325.000 C 95.425 322.800,96.040 314.880,96.589 307.400 C 97.873 289.892,99.376 270.095,100.401 257.200 C 101.685 241.049,102.394 231.139,102.397 229.300 L 102.400 227.600 51.824 227.600 C 18.537 227.600,1.163 227.463,1.000 227.200 C 0.864 226.980,0.583 226.800,0.376 226.800 C 0.142 226.800,0.000 257.303,0.000 307.400 L 0.000 388.000 193.800 388.000 L 387.600 388.000 387.600 307.800 L 387.600 227.600 338.943 227.600 L 290.286 227.600 290.568 232.100 C 290.723 234.575,291.110 239.570,291.429 243.200 C 291.747 246.830,292.366 254.570,292.804 260.400 C 293.241 266.230,293.868 274.150,294.197 278.000 C 294.526 281.850,295.245 290.850,295.795 298.000 C 296.345 305.150,297.055 313.880,297.374 317.400 C 297.692 320.920,298.135 326.320,298.359 329.400 C 299.059 339.044,298.741 338.800,310.599 338.800 L 318.823 338.800 318.712 344.100 L 318.600 349.400 277.200 349.400 L 235.800 349.400 235.688 344.100 L 235.577 338.800 239.688 338.775 C 251.916 338.700,251.856 338.741,251.244 330.931 C 250.669 323.577,249.141 303.104,245.009 247.400 C 244.454 239.920,243.643 229.300,243.205 223.800 C 242.768 218.300,242.290 211.769,242.144 209.286 C 241.998 206.803,241.753 204.694,241.600 204.600 C 241.447 204.505,238.961 210.317,236.075 217.514 M25.800 405.496 C 35.378 405.594,36.657 405.682,37.100 406.280 C 37.540 406.871,37.600 406.876,37.600 406.319 C 37.600 405.269,36.755 405.196,25.667 405.293 L 15.000 405.386 25.800 405.496 M58.900 405.496 L 69.600 405.613 69.600 410.207 L 69.600 414.800 67.824 414.800 C 66.847 414.800,65.963 414.935,65.861 415.100 C 65.758 415.265,66.653 415.338,67.849 415.262 L 70.024 415.125 69.912 410.262 L 69.800 405.400 59.000 405.390 L 48.200 405.380 58.900 405.496 M250.100 405.465 C 249.546 405.688,249.351 415.200,249.900 415.200 C 250.065 415.201,250.200 413.086,250.200 410.500 L 250.200 405.800 257.400 405.586 L 264.600 405.372 257.600 405.318 C 253.750 405.288,250.375 405.354,250.100 405.465 M273.400 405.473 C 279.225 405.761,285.510 405.775,285.339 405.500 C 285.237 405.335,281.968 405.235,278.076 405.277 C 274.184 405.319,272.080 405.408,273.400 405.473 M299.787 405.495 L 306.374 405.619 306.508 410.010 L 306.641 414.401 306.621 409.901 L 306.600 405.400 299.900 405.385 L 293.199 405.370 299.787 405.495 M264.896 424.100 L 264.800 442.800 266.200 442.800 L 267.600 442.800 267.600 447.400 L 267.600 452.000 258.800 452.000 L 250.000 452.000 250.000 447.425 L 250.000 442.851 251.300 442.725 L 252.600 442.600 252.608 428.800 L 252.616 415.000 252.503 428.675 L 252.390 442.350 251.095 442.475 L 249.800 442.600 249.800 447.400 L 249.800 452.200 258.800 452.200 L 267.800 452.200 267.800 447.400 L 267.800 442.600 266.504 442.475 L 265.208 442.350 265.100 423.875 L 264.992 405.400 264.896 424.100 M161.000 408.000 C 159.981 408.438,161.032 408.438,162.400 408.000 C 163.204 407.743,163.243 407.677,162.600 407.668 C 162.160 407.662,161.440 407.811,161.000 408.000 M46.622 411.022 C 46.472 411.825,46.428 412.562,46.526 412.660 C 46.624 412.757,46.827 412.181,46.978 411.378 C 47.128 410.575,47.172 409.838,47.074 409.740 C 46.976 409.643,46.773 410.219,46.622 411.022 M153.200 414.000 L 153.200 417.600 151.624 417.600 C 150.757 417.600,149.964 417.735,149.861 417.900 C 149.759 418.065,150.558 418.138,151.638 418.061 L 153.600 417.923 153.600 414.161 C 153.600 412.093,153.510 410.400,153.400 410.400 C 153.290 410.400,153.200 412.020,153.200 414.000 M38.887 414.200 C 38.891 414.640,39.032 415.540,39.200 416.200 C 39.474 417.278,39.506 417.298,39.513 416.400 C 39.517 415.850,39.376 414.950,39.200 414.400 C 38.949 413.616,38.881 413.573,38.887 414.200 M16.700 415.083 L 18.800 415.242 18.800 428.800 L 18.800 442.358 16.700 442.517 L 14.600 442.676 16.800 442.638 L 19.000 442.600 19.000 428.800 L 19.000 415.000 16.800 414.962 L 14.600 414.924 16.700 415.083 M28.456 416.800 C 28.456 417.130,28.611 417.760,28.800 418.200 C 29.017 418.704,29.144 418.778,29.144 418.400 C 29.144 418.070,28.989 417.440,28.800 417.000 C 28.583 416.496,28.456 416.422,28.456 416.800 M54.021 418.300 C 53.527 420.080,53.515 420.929,54.000 419.800 C 54.203 419.328,54.355 423.795,54.372 430.700 L 54.400 442.400 53.224 442.400 C 52.577 442.400,51.962 442.538,51.857 442.707 C 51.753 442.876,52.372 442.948,53.234 442.865 L 54.800 442.716 54.800 429.758 C 54.800 416.508,54.745 415.694,54.021 418.300 M135.300 417.076 C 135.685 417.176,136.315 417.176,136.700 417.076 C 137.085 416.975,136.770 416.893,136.000 416.893 C 135.230 416.893,134.915 416.975,135.300 417.076 M88.300 417.495 C 89.455 417.576,91.345 417.576,92.500 417.495 C 93.655 417.414,92.710 417.348,90.400 417.348 C 88.090 417.348,87.145 417.414,88.300 417.495 M138.400 417.284 C 138.510 417.393,139.226 417.693,139.991 417.951 C 140.756 418.210,141.206 418.250,140.991 418.039 C 140.776 417.829,140.060 417.529,139.400 417.372 C 138.740 417.216,138.290 417.176,138.400 417.284 M226.500 417.476 C 226.885 417.576,227.515 417.576,227.900 417.476 C 228.285 417.375,227.970 417.293,227.200 417.293 C 226.430 417.293,226.115 417.375,226.500 417.476 M231.700 417.476 C 232.085 417.576,232.715 417.576,233.100 417.476 C 233.485 417.375,233.170 417.293,232.400 417.293 C 231.630 417.293,231.315 417.375,231.700 417.476 M330.900 417.476 C 331.285 417.576,331.915 417.576,332.300 417.476 C 332.685 417.375,332.370 417.293,331.600 417.293 C 330.830 417.293,330.515 417.375,330.900 417.476 M83.800 418.000 C 82.781 418.438,83.832 418.438,85.200 418.000 C 86.004 417.743,86.043 417.677,85.400 417.668 C 84.960 417.662,84.240 417.811,83.800 418.000 M94.833 417.744 C 94.925 417.823,95.540 418.008,96.200 418.156 C 97.076 418.352,97.238 418.315,96.800 418.018 C 96.260 417.653,94.432 417.398,94.833 417.744 M165.400 417.839 C 167.241 418.138,170.311 418.178,170.139 417.900 C 170.036 417.735,168.748 417.625,167.276 417.654 C 165.804 417.684,164.960 417.767,165.400 417.839 M179.775 417.895 L 186.751 418.018 186.913 419.109 C 187.063 420.121,187.072 420.113,187.037 419.000 L 187.000 417.800 179.900 417.786 L 172.799 417.771 179.775 417.895 M190.976 418.222 C 190.212 418.834,190.213 418.838,191.000 418.476 C 191.440 418.274,192.070 418.008,192.400 417.886 C 192.918 417.693,192.915 417.659,192.376 417.632 C 192.034 417.614,191.404 417.880,190.976 418.222 M200.000 417.734 C 200.000 417.837,200.581 418.124,201.291 418.372 C 202.001 418.619,202.406 418.657,202.191 418.456 C 201.735 418.029,200.000 417.458,200.000 417.734 M223.800 418.000 C 223.296 418.217,223.222 418.344,223.600 418.344 C 223.930 418.344,224.560 418.189,225.000 418.000 C 225.504 417.783,225.578 417.656,225.200 417.656 C 224.870 417.656,224.240 417.811,223.800 418.000 M235.584 418.209 C 236.565 418.515,237.429 418.704,237.504 418.629 C 237.709 418.424,235.177 417.596,234.440 417.627 C 234.088 417.641,234.603 417.904,235.584 418.209 M291.700 417.865 C 291.332 418.013,291.221 419.352,291.280 422.933 L 291.361 427.800 291.580 423.000 L 291.800 418.200 299.000 418.200 L 306.200 418.200 306.306 430.500 L 306.412 442.800 307.806 442.800 L 309.200 442.800 309.200 447.400 L 309.200 452.000 300.400 452.000 L 291.600 452.000 291.600 447.425 L 291.600 442.851 292.900 442.725 L 294.200 442.600 294.309 435.100 L 294.418 427.600 293.109 427.660 C 291.899 427.715,291.883 427.732,292.900 427.887 L 294.000 428.053 294.000 435.201 L 294.000 442.349 292.700 442.475 L 291.400 442.600 291.288 447.500 L 291.175 452.400 300.400 452.400 L 309.625 452.400 309.512 447.500 L 309.400 442.600 308.100 442.475 L 306.800 442.349 306.800 430.455 C 306.800 421.737,306.672 418.432,306.320 418.080 C 305.841 417.601,292.828 417.410,291.700 417.865 M322.800 418.018 C 322.362 418.315,322.524 418.352,323.400 418.156 C 324.871 417.827,325.190 417.598,324.167 417.606 C 323.745 417.609,323.130 417.795,322.800 418.018 M333.233 417.744 C 333.325 417.823,333.940 418.008,334.600 418.156 C 335.476 418.352,335.638 418.315,335.200 418.018 C 334.660 417.653,332.832 417.398,333.233 417.744 M367.600 417.995 C 367.191 418.255,367.510 418.299,368.600 418.132 C 370.577 417.829,370.914 417.598,369.367 417.606 C 368.725 417.609,367.930 417.784,367.600 417.995 M371.200 417.758 C 371.200 417.845,371.905 417.983,372.766 418.065 C 373.628 418.148,374.247 418.076,374.143 417.907 C 373.953 417.600,371.200 417.460,371.200 417.758 M111.354 422.800 C 111.354 425.550,111.418 426.675,111.496 425.300 C 111.574 423.925,111.574 421.675,111.496 420.300 C 111.418 418.925,111.354 420.050,111.354 422.800 M124.752 419.287 C 124.937 420.398,124.993 420.455,125.119 419.654 C 125.201 419.133,125.103 418.543,124.901 418.341 C 124.679 418.119,124.621 418.493,124.752 419.287 M362.400 420.538 C 362.510 421.892,362.776 422.969,362.990 422.930 C 363.541 422.831,363.758 422.000,363.233 422.000 C 362.987 422.000,362.800 421.232,362.800 420.224 C 362.800 419.247,362.665 418.364,362.500 418.261 C 362.335 418.159,362.290 419.184,362.400 420.538 M172.551 422.800 C 172.551 425.330,172.616 426.365,172.696 425.100 C 172.775 423.835,172.775 421.765,172.696 420.500 C 172.616 419.235,172.551 420.270,172.551 422.800 M188.462 420.040 C 187.726 420.709,187.198 421.331,187.289 421.422 C 187.380 421.514,188.063 420.961,188.806 420.194 C 190.466 418.481,190.272 418.394,188.462 420.040 M29.268 419.800 C 29.262 420.240,29.411 420.960,29.600 421.400 C 30.038 422.419,30.038 421.368,29.600 420.000 C 29.343 419.196,29.277 419.157,29.268 419.800 M44.457 421.457 C 44.206 422.709,44.074 423.808,44.165 423.898 C 44.256 423.989,44.542 423.045,44.800 421.800 C 45.058 420.555,45.190 419.457,45.092 419.359 C 44.994 419.261,44.709 420.205,44.457 421.457 M143.637 420.400 C 144.796 422.196,144.800 422.201,144.798 421.767 C 144.797 421.565,144.332 420.860,143.765 420.200 L 142.734 419.000 143.637 420.400 M100.600 419.879 C 101.888 421.194,104.481 423.243,103.600 422.250 C 103.050 421.629,102.060 420.750,101.400 420.296 C 100.740 419.842,100.380 419.654,100.600 419.879 M240.708 420.648 C 241.428 421.282,242.483 422.340,243.054 423.000 L 244.093 424.200 243.117 422.829 C 242.581 422.075,241.525 421.017,240.771 420.477 L 239.400 419.497 240.708 420.648 M317.277 421.459 L 315.400 423.318 317.400 421.591 C 318.500 420.641,319.475 419.804,319.567 419.732 C 319.658 419.659,319.603 419.600,319.443 419.600 C 319.284 419.600,318.309 420.437,317.277 421.459 M77.767 421.429 L 76.200 422.858 77.900 421.562 C 79.453 420.378,79.832 420.000,79.467 420.000 C 79.393 420.000,78.628 420.643,77.767 421.429 M207.478 424.595 C 207.844 425.362,208.214 425.919,208.301 425.832 C 208.484 425.649,207.270 423.200,206.996 423.200 C 206.895 423.200,207.112 423.828,207.478 424.595 M105.000 424.800 C 105.341 425.460,105.711 426.000,105.821 426.000 C 105.931 426.000,105.741 425.460,105.400 424.800 C 105.059 424.140,104.689 423.600,104.579 423.600 C 104.469 423.600,104.659 424.140,105.000 424.800 M52.200 425.600 C 52.048 426.291,52.007 426.941,52.109 427.042 C 52.211 427.144,52.409 426.653,52.550 425.950 C 52.883 424.283,52.560 423.960,52.200 425.600 M231.633 426.100 C 231.725 426.155,232.340 426.650,233.000 427.200 L 234.200 428.200 233.230 427.100 C 232.697 426.495,232.082 426.000,231.864 426.000 C 231.645 426.000,231.542 426.045,231.633 426.100 M89.505 426.683 C 90.002 426.779,90.722 426.775,91.105 426.675 C 91.487 426.575,91.080 426.496,90.200 426.501 C 89.320 426.505,89.007 426.587,89.505 426.683 M87.800 427.106 C 87.580 427.268,87.135 427.760,86.812 428.200 C 86.378 428.791,86.509 428.746,87.312 428.030 C 88.291 427.158,88.589 426.788,88.300 426.806 C 88.245 426.809,88.020 426.944,87.800 427.106 M190.200 427.106 C 189.980 427.268,189.535 427.760,189.212 428.200 C 188.778 428.791,188.909 428.746,189.712 428.030 C 190.691 427.158,190.989 426.788,190.700 426.806 C 190.645 426.809,190.420 426.944,190.200 427.106 M344.459 427.400 C 344.445 427.620,344.681 428.790,344.983 430.000 C 345.285 431.210,345.533 431.750,345.535 431.200 C 345.538 430.230,344.509 426.596,344.459 427.400 M113.917 434.973 L 114.034 442.347 112.717 442.473 L 111.400 442.600 111.288 447.500 L 111.175 452.400 120.000 452.400 L 128.825 452.400 128.712 447.500 L 128.600 442.600 127.400 442.542 C 126.260 442.487,126.255 442.493,127.300 442.669 L 128.400 442.853 128.400 447.427 L 128.400 452.000 120.000 452.000 L 111.600 452.000 111.600 447.425 L 111.600 442.851 112.900 442.725 L 114.200 442.600 114.309 435.100 C 114.369 430.975,114.279 427.600,114.109 427.600 C 113.939 427.599,113.853 430.917,113.917 434.973 M152.303 433.699 C 152.491 444.846,152.638 445.904,152.720 436.700 C 152.764 431.695,152.665 427.600,152.500 427.599 C 152.335 427.599,152.246 430.344,152.303 433.699 M175.110 441.774 L 175.220 455.948 173.910 456.126 L 172.600 456.304 174.000 456.252 L 175.400 456.200 175.505 441.900 C 175.563 434.035,175.473 427.600,175.305 427.600 C 175.137 427.600,175.049 433.978,175.110 441.774 M127.601 428.998 C 127.086 429.548,126.739 430.048,126.832 430.111 C 126.924 430.174,127.484 429.724,128.074 429.112 C 128.665 428.501,129.012 428.000,128.844 428.000 C 128.677 428.000,128.117 428.449,127.601 428.998 M131.911 428.623 C 132.400 428.965,132.814 429.550,132.832 429.923 C 132.853 430.375,132.933 430.426,133.073 430.077 C 133.303 429.502,132.129 428.000,131.449 428.000 C 131.214 428.000,131.422 428.280,131.911 428.623 M325.260 429.914 L 325.200 431.228 329.300 431.114 C 333.242 431.004,333.402 430.965,333.453 430.094 C 333.497 429.340,333.476 429.323,333.325 429.994 C 333.160 430.732,332.827 430.800,329.399 430.800 L 325.653 430.800 325.487 429.700 C 325.333 428.687,325.315 428.704,325.260 429.914 M226.134 430.000 C 226.200 430.996,234.398 431.903,234.401 430.914 C 234.401 430.741,232.615 430.657,230.432 430.726 C 226.560 430.849,226.458 430.829,226.266 429.926 C 226.083 429.064,226.073 429.069,226.134 430.000 M31.668 430.200 C 31.662 430.640,31.811 431.360,32.000 431.800 C 32.438 432.819,32.438 431.768,32.000 430.400 C 31.743 429.596,31.677 429.557,31.668 430.200 M312.257 431.900 C 311.956 433.721,312.002 437.370,312.347 438.977 C 312.486 439.625,312.600 437.960,312.600 435.277 C 312.600 429.817,312.600 429.821,312.257 431.900 M72.950 435.000 C 72.951 437.420,73.016 438.358,73.096 437.085 C 73.176 435.812,73.175 433.832,73.094 432.685 C 73.014 431.538,72.949 432.580,72.950 435.000 M126.493 432.000 C 126.493 432.770,126.575 433.085,126.676 432.700 C 126.776 432.315,126.776 431.685,126.676 431.300 C 126.575 430.915,126.493 431.230,126.493 432.000 M213.301 432.600 C 213.305 433.480,213.387 433.793,213.483 433.295 C 213.579 432.798,213.575 432.078,213.475 431.695 C 213.375 431.313,213.296 431.720,213.301 432.600 M94.942 435.000 C 94.941 436.980,95.008 437.840,95.092 436.912 C 95.176 435.984,95.177 434.364,95.095 433.312 C 95.012 432.260,94.943 433.020,94.942 435.000 M187.740 434.800 C 187.740 436.670,187.809 437.435,187.893 436.500 C 187.977 435.565,187.977 434.035,187.893 433.100 C 187.809 432.165,187.740 432.930,187.740 434.800 M85.337 435.000 C 85.339 436.760,85.409 437.430,85.493 436.489 C 85.578 435.549,85.577 434.109,85.491 433.289 C 85.405 432.470,85.336 433.240,85.337 435.000 M246.400 434.793 L 246.400 437.186 236.100 437.293 C 226.117 437.397,225.799 437.425,225.761 438.200 C 225.731 438.809,225.761 438.833,225.889 438.300 C 226.042 437.656,226.880 437.600,236.428 437.600 L 246.800 437.600 246.800 435.000 C 246.800 433.570,246.710 432.400,246.600 432.400 C 246.490 432.400,246.400 433.477,246.400 434.793 M107.714 435.400 C 107.717 436.500,107.795 436.903,107.887 436.295 C 107.979 435.686,107.977 434.786,107.882 434.295 C 107.787 433.803,107.711 434.300,107.714 435.400 M209.714 435.400 C 209.717 436.500,209.795 436.903,209.887 436.295 C 209.979 435.686,209.977 434.786,209.882 434.295 C 209.787 433.803,209.711 434.300,209.714 435.400 M345.667 435.293 L 345.600 437.186 335.300 437.293 L 325.000 437.400 324.961 439.103 L 324.922 440.806 325.084 439.203 L 325.246 437.600 335.436 437.600 C 346.699 437.600,346.182 437.731,345.894 434.942 C 345.742 433.472,345.731 433.488,345.667 435.293 M49.262 437.662 C 49.000 438.794,48.859 439.793,48.948 439.881 C 49.037 439.970,49.330 439.124,49.600 438.000 C 49.870 436.876,50.011 435.877,49.913 435.780 C 49.816 435.683,49.523 436.530,49.262 437.662 M213.309 437.600 C 213.309 438.590,213.387 438.995,213.482 438.500 C 213.578 438.005,213.578 437.195,213.482 436.700 C 213.387 436.205,213.309 436.610,213.309 437.600 M209.293 439.200 C 209.293 439.970,209.375 440.285,209.476 439.900 C 209.576 439.515,209.576 438.885,209.476 438.500 C 209.375 438.115,209.293 438.430,209.293 439.200 M34.067 440.600 C 34.061 441.452,35.092 444.877,35.150 444.200 C 35.169 443.980,34.934 442.900,34.628 441.800 C 34.322 440.700,34.069 440.160,34.067 440.600 M194.486 442.340 C 192.976 443.898,191.446 443.887,189.619 442.305 L 188.600 441.423 189.600 442.502 C 191.257 444.290,192.837 444.344,194.659 442.674 C 195.505 441.898,196.108 441.201,195.999 441.125 C 195.889 441.048,195.209 441.595,194.486 442.340 M93.090 442.281 C 92.716 442.656,91.552 443.082,90.505 443.228 L 88.600 443.493 90.278 443.547 C 91.640 443.590,95.284 441.689,93.986 441.613 C 93.868 441.606,93.465 441.906,93.090 442.281 M332.089 443.117 L 331.179 444.600 332.189 443.478 C 332.745 442.860,333.200 442.185,333.200 441.978 C 333.200 441.390,333.065 441.528,332.089 443.117 M165.762 442.700 C 166.370 443.418,166.896 443.586,168.362 443.530 L 170.200 443.460 168.401 443.302 C 167.411 443.215,166.241 442.842,165.801 442.472 C 165.006 441.805,165.006 441.807,165.762 442.700 M29.700 442.676 L 31.200 442.848 31.200 447.416 L 31.200 451.984 22.900 452.105 L 14.600 452.226 23.000 452.213 L 31.400 452.200 31.400 447.400 L 31.400 442.600 29.800 442.552 L 28.200 442.505 29.700 442.676 M67.500 442.683 L 69.600 442.842 69.600 447.413 L 69.600 451.985 60.500 452.100 L 51.400 452.216 60.712 452.308 L 70.025 452.400 69.912 447.500 L 69.800 442.600 67.600 442.562 L 65.400 442.524 67.500 442.683 M146.305 442.683 C 146.802 442.779,147.522 442.775,147.905 442.675 C 148.287 442.575,147.880 442.496,147.000 442.501 C 146.120 442.505,145.807 442.587,146.305 442.683 M270.400 442.720 C 270.400 442.896,271.030 442.966,271.800 442.876 C 272.570 442.786,273.200 442.642,273.200 442.556 C 273.200 442.470,272.570 442.400,271.800 442.400 C 271.030 442.400,270.400 442.544,270.400 442.720 M286.305 442.683 C 286.802 442.779,287.522 442.775,287.905 442.675 C 288.287 442.575,287.880 442.496,287.000 442.501 C 286.120 442.505,285.807 442.587,286.305 442.683 M349.905 442.683 C 350.402 442.779,351.122 442.775,351.505 442.675 C 351.887 442.575,351.480 442.496,350.600 442.501 C 349.720 442.505,349.407 442.587,349.905 442.683 M365.700 442.681 L 367.600 442.844 367.600 447.415 L 367.600 451.985 358.300 452.100 L 349.000 452.215 358.512 452.308 L 368.025 452.400 367.912 447.500 L 367.800 442.600 365.800 442.559 L 363.800 442.518 365.700 442.681 M74.000 443.349 C 74.000 443.840,75.571 446.735,75.971 446.982 C 76.182 447.112,75.884 446.360,75.310 445.309 C 74.122 443.139,74.000 442.956,74.000 443.349 M148.484 447.517 L 148.400 452.033 140.800 451.917 C 136.619 451.853,133.199 451.935,133.200 452.100 C 133.200 452.679,148.404 452.455,148.627 451.873 C 148.739 451.583,148.771 449.468,148.699 447.173 L 148.569 443.000 148.484 447.517 M288.550 447.400 C 288.551 449.820,288.616 450.758,288.696 449.485 C 288.776 448.212,288.775 446.232,288.694 445.085 C 288.614 443.938,288.549 444.980,288.550 447.400 M105.478 445.005 C 105.112 445.772,104.895 446.400,104.996 446.400 C 105.270 446.400,106.484 443.951,106.301 443.768 C 106.214 443.681,105.844 444.238,105.478 445.005 M313.600 443.753 C 313.600 444.182,314.790 446.400,315.021 446.400 C 315.131 446.400,314.923 445.815,314.559 445.100 C 313.817 443.640,313.600 443.336,313.600 443.753 M342.399 447.300 C 341.810 448.104,341.713 448.384,342.145 448.033 C 342.801 447.500,343.793 446.000,343.489 446.000 C 343.413 446.000,342.922 446.585,342.399 447.300 M242.626 448.300 C 241.762 449.405,241.693 449.590,242.363 449.004 C 243.165 448.304,244.223 446.800,243.914 446.800 C 243.851 446.800,243.272 447.475,242.626 448.300 M317.496 449.100 C 318.674 450.255,319.849 451.200,320.108 451.200 C 320.366 451.200,320.133 450.903,319.589 450.541 C 319.045 450.178,317.870 449.233,316.978 448.441 C 316.085 447.648,316.319 447.945,317.496 449.100 M153.209 448.611 C 153.220 449.099,154.399 450.510,155.219 451.017 C 155.752 451.347,155.750 451.317,155.207 450.800 C 154.859 450.470,154.266 449.755,153.888 449.211 C 153.509 448.667,153.204 448.397,153.209 448.611 M204.200 450.278 C 203.100 451.294,202.560 451.932,203.000 451.695 C 203.762 451.286,206.753 448.383,206.378 448.416 C 206.280 448.425,205.300 449.263,204.200 450.278 M187.685 452.500 L 187.800 456.200 189.303 456.242 L 190.807 456.284 189.403 456.118 L 188.000 455.952 188.000 452.552 C 188.000 450.084,188.127 449.231,188.462 449.438 C 188.748 449.615,188.815 449.548,188.638 449.262 C 187.876 448.028,187.577 449.042,187.685 452.500 M99.800 450.834 C 98.700 451.465,97.942 451.986,98.116 451.991 C 98.631 452.006,101.525 450.446,101.796 450.006 C 102.112 449.496,102.182 449.467,99.800 450.834 M239.000 450.834 C 237.900 451.465,237.142 451.986,237.316 451.991 C 237.831 452.006,240.725 450.446,240.996 450.006 C 241.312 449.496,241.382 449.467,239.000 450.834 M79.944 450.776 C 80.464 451.229,81.079 451.600,81.311 451.600 C 81.803 451.600,81.779 451.580,80.200 450.655 L 79.000 449.953 79.944 450.776 M188.800 450.146 C 188.800 450.256,189.340 450.730,190.000 451.200 C 190.660 451.670,191.200 451.964,191.200 451.854 C 191.200 451.744,190.660 451.270,190.000 450.800 C 189.340 450.330,188.800 450.036,188.800 450.146 M36.428 450.667 C 36.332 452.268,36.748 452.402,41.543 452.320 L 46.200 452.240 41.639 452.020 C 37.560 451.823,37.045 451.716,36.767 451.000 C 36.596 450.560,36.444 450.410,36.428 450.667 M337.600 451.200 C 336.830 451.622,336.344 451.974,336.520 451.983 C 336.944 452.005,339.200 450.832,339.200 450.590 C 339.200 450.328,339.177 450.337,337.600 451.200 M270.399 452.100 C 270.400 452.265,274.495 452.364,279.500 452.320 C 288.704 452.238,287.646 452.091,276.499 451.903 C 273.144 451.846,270.399 451.935,270.399 452.100 M88.700 453.093 C 89.635 453.177,91.165 453.177,92.100 453.093 C 93.035 453.009,92.270 452.940,90.400 452.940 C 88.530 452.940,87.765 453.009,88.700 453.093 M195.100 453.089 C 195.815 453.178,196.985 453.178,197.700 453.089 C 198.415 453.001,197.830 452.928,196.400 452.928 C 194.970 452.928,194.385 453.001,195.100 453.089 M228.691 453.089 C 229.401 453.177,230.661 453.179,231.491 453.092 C 232.321 453.005,231.740 452.933,230.200 452.931 C 228.660 452.929,227.981 453.000,228.691 453.089 M327.891 453.089 C 328.601 453.177,329.861 453.179,330.691 453.092 C 331.521 453.005,330.940 452.933,329.400 452.931 C 327.860 452.929,327.181 453.000,327.891 453.089 M172.580 461.400 L 172.600 465.800 181.700 465.812 L 190.800 465.823 181.813 465.704 L 172.826 465.585 172.693 461.293 L 172.561 457.000 172.580 461.400 " stroke="none" fill="#FFFFFF" fill-rule="evenodd"></path><path id="path2" d="M0.000 435.600 L 0.000 478.400 194.000 478.400 L 388.000 478.400 388.000 435.600 L 388.000 392.800 194.000 392.800 L 0.000 392.800 0.000 435.600 M37.037 405.506 C 37.277 405.668,37.763 407.330,38.117 409.200 C 38.470 411.070,39.032 413.950,39.365 415.600 C 39.698 417.250,40.448 421.120,41.031 424.200 C 42.443 431.651,42.497 431.678,43.713 425.526 C 46.137 413.263,47.704 406.169,48.094 405.694 C 48.414 405.303,50.946 405.212,59.154 405.294 L 69.800 405.400 69.912 410.279 L 70.024 415.157 67.912 415.279 L 65.800 415.400 65.695 428.879 L 65.589 442.358 67.695 442.479 L 69.800 442.600 69.912 447.500 L 70.025 452.400 60.800 452.400 L 51.575 452.400 51.688 447.500 L 51.800 442.600 53.100 442.475 L 54.400 442.349 54.400 430.708 C 54.400 424.305,54.325 419.142,54.234 419.233 C 54.143 419.325,53.253 422.730,52.258 426.800 C 49.188 439.353,46.421 450.557,46.158 451.500 C 45.916 452.366,45.734 452.400,41.369 452.400 L 36.831 452.400 36.463 450.900 C 36.261 450.075,35.516 446.880,34.807 443.800 C 30.388 424.604,28.716 417.600,28.553 417.600 C 28.469 417.600,28.400 423.169,28.400 429.976 L 28.400 442.352 29.900 442.476 L 31.400 442.600 31.400 447.400 L 31.400 452.200 23.100 452.308 L 14.800 452.416 14.800 447.408 L 14.800 442.400 16.800 442.400 L 18.800 442.400 18.800 428.800 L 18.800 415.200 16.800 415.200 L 14.800 415.200 14.800 410.467 C 14.800 407.863,14.920 405.613,15.067 405.467 C 15.432 405.101,36.491 405.139,37.037 405.506 M264.567 405.443 C 265.132 405.659,265.200 407.670,265.200 424.017 L 265.200 442.349 266.500 442.475 L 267.800 442.600 267.800 447.400 L 267.800 452.200 258.800 452.200 L 249.800 452.200 249.800 447.400 L 249.800 442.600 251.100 442.475 L 252.400 442.349 252.400 428.775 L 252.400 415.200 251.000 415.200 L 249.600 415.200 249.600 410.433 C 249.600 406.994,249.739 405.610,250.100 405.465 C 250.821 405.174,263.814 405.154,264.567 405.443 M285.504 423.900 L 285.608 442.400 286.961 442.400 C 288.674 442.400,288.800 442.742,288.800 447.400 C 288.800 452.898,289.741 452.400,279.357 452.400 L 270.400 452.400 270.400 447.400 L 270.400 442.400 271.805 442.400 L 273.211 442.400 273.105 428.900 L 273.000 415.400 271.700 415.275 L 270.400 415.149 270.400 410.408 C 270.400 404.721,269.591 405.235,278.400 405.327 L 285.400 405.400 285.504 423.900 M306.713 409.900 L 306.826 414.400 300.013 414.400 L 293.200 414.400 293.200 409.790 L 293.200 405.181 299.900 405.290 L 306.600 405.400 306.713 409.900 M164.800 412.382 L 164.800 417.563 167.500 417.682 L 170.200 417.800 170.312 422.681 L 170.424 427.563 167.712 427.681 L 165.000 427.800 165.000 434.659 C 165.000 442.681,165.198 443.200,168.262 443.200 L 170.000 443.200 170.000 447.613 C 170.000 452.933,170.440 452.600,163.393 452.600 C 153.359 452.600,152.687 451.684,152.400 437.600 L 152.200 427.800 150.888 427.674 L 149.576 427.548 149.688 422.674 L 149.800 417.800 151.500 417.677 L 153.200 417.554 153.206 414.077 C 153.214 409.766,153.222 409.754,156.616 409.034 C 158.147 408.710,160.390 408.176,161.600 407.848 C 162.810 407.521,164.025 407.241,164.300 407.226 C 164.676 407.207,164.800 408.489,164.800 412.382 M140.761 417.910 C 145.032 419.915,145.600 421.726,145.600 433.346 L 145.600 442.400 146.992 442.400 C 148.740 442.400,148.873 442.849,148.717 448.200 L 148.600 452.200 140.900 452.309 L 133.200 452.417 133.194 441.509 C 133.188 429.721,133.062 428.923,131.108 428.235 C 127.956 427.127,126.733 429.337,126.487 436.588 L 126.292 442.336 127.446 442.468 L 128.600 442.600 128.712 447.500 L 128.825 452.400 120.000 452.400 L 111.175 452.400 111.288 447.500 L 111.400 442.600 112.709 442.474 L 114.018 442.348 113.909 435.074 L 113.800 427.800 112.500 427.675 L 111.200 427.549 111.200 422.765 L 111.200 417.981 118.100 418.091 L 125.000 418.200 125.200 420.327 L 125.400 422.454 126.800 420.993 C 130.487 417.146,136.367 415.847,140.761 417.910 M98.442 418.682 C 106.272 422.284,109.595 431.318,106.947 441.800 C 104.553 451.274,94.276 455.618,82.754 452.026 C 70.222 448.119,68.985 424.988,81.000 419.221 C 86.198 416.726,93.689 416.495,98.442 418.682 M200.440 417.663 C 212.294 421.704,213.258 447.663,201.725 452.235 C 197.334 453.977,191.739 453.118,189.105 450.298 L 188.000 449.115 188.000 452.558 L 188.000 456.000 189.400 456.000 L 190.800 456.000 190.800 461.008 L 190.800 466.015 181.700 465.908 L 172.600 465.800 172.483 461.800 C 172.331 456.590,172.486 456.000,174.013 456.000 L 175.210 456.000 175.105 441.904 L 175.000 427.808 173.800 427.601 L 172.600 427.394 172.483 423.397 C 172.296 417.019,171.589 417.563,179.910 417.691 L 187.000 417.800 187.124 419.300 C 187.276 421.134,187.283 421.134,189.321 419.390 C 191.792 417.274,196.950 416.474,200.440 417.663 M237.634 418.664 C 243.689 421.497,246.785 427.186,246.797 435.500 L 246.800 437.600 236.344 437.600 L 225.888 437.600 226.118 439.831 C 226.693 445.397,232.625 446.581,234.018 441.408 C 234.222 440.648,234.601 440.593,240.348 440.489 C 246.322 440.381,246.455 440.397,246.230 441.189 C 246.104 441.635,245.899 442.405,245.775 442.900 C 242.676 455.300,221.196 456.953,215.226 445.251 C 211.610 438.164,212.886 426.693,217.841 421.738 C 222.470 417.109,231.361 415.728,237.634 418.664 M336.862 418.729 C 342.111 421.245,344.871 425.607,345.684 432.673 C 346.305 438.069,347.286 437.600,335.363 437.600 L 325.101 437.600 325.285 439.817 C 325.720 445.066,330.488 446.563,332.600 442.114 L 333.400 440.429 339.300 440.414 C 346.089 440.398,345.855 440.220,344.346 444.253 C 341.528 451.785,331.910 455.128,322.215 451.946 C 309.492 447.769,308.371 425.305,320.576 419.103 C 325.372 416.666,332.230 416.509,336.862 418.729 M306.320 418.080 C 306.672 418.432,306.800 421.737,306.800 430.455 L 306.800 442.349 308.100 442.475 L 309.400 442.600 309.512 447.500 L 309.625 452.400 300.400 452.400 L 291.175 452.400 291.288 447.500 L 291.400 442.600 292.700 442.475 L 294.000 442.349 294.000 435.175 C 294.000 428.369,293.961 428.000,293.233 428.000 C 291.281 428.000,291.200 427.793,291.200 422.791 C 291.200 419.386,291.340 418.010,291.700 417.865 C 292.828 417.410,305.841 417.601,306.320 418.080 M374.310 423.400 L 374.420 429.000 371.510 429.000 C 365.859 429.000,364.372 430.713,364.090 437.546 L 363.892 442.352 365.846 442.476 L 367.800 442.600 367.912 447.500 L 368.025 452.400 358.612 452.400 L 349.200 452.400 349.200 447.400 L 349.200 442.400 350.600 442.400 L 352.000 442.400 352.000 435.243 C 352.000 427.600,352.000 427.600,349.967 427.600 C 349.253 427.600,349.200 427.265,349.200 422.790 L 349.200 417.981 355.900 418.090 L 362.600 418.200 362.722 420.100 C 362.858 422.216,363.243 422.502,363.929 420.995 C 364.882 418.904,367.841 417.557,371.200 417.686 L 374.200 417.800 374.310 423.400 M227.569 427.169 C 226.778 427.961,226.400 428.741,226.400 429.584 L 226.400 430.829 230.300 430.714 L 234.200 430.600 234.079 429.400 C 233.768 426.313,229.789 424.949,227.569 427.169 M326.582 426.982 C 325.909 427.655,325.600 428.409,325.600 429.382 L 325.600 430.800 329.400 430.800 L 333.200 430.800 333.200 429.569 C 333.200 426.508,328.783 424.781,326.582 426.982 M87.467 427.930 C 84.835 430.677,84.831 439.522,87.460 442.151 C 91.962 446.653,96.342 439.412,94.547 430.436 C 93.858 426.988,89.759 425.538,87.467 427.930 M189.900 427.900 C 187.283 430.644,187.166 439.925,189.719 442.324 C 193.346 445.731,196.575 442.281,196.575 435.000 C 196.575 427.864,193.279 424.358,189.900 427.900 " stroke="none" fill="#FFFFFF" fill-rule="evenodd"></path></g></svg>